<svg xmlns="http://www.w3.org/2000/svg" xmlns:xlink="http://www.w3.org/1999/xlink" width="32" height="32" viewBox="0 0 32 32">
  <defs>
    <linearGradient id="linear-gradient" x1="0.209" y1="0.941" x2="1.601" y2="-1.124" gradientUnits="objectBoundingBox">
      <stop offset="0" stop-color="#2b8ff2"/>
      <stop offset="1" stop-color="#00557b"/>
    </linearGradient>
  </defs>
  <g id="call" transform="translate(-23107 15705)">
    <g id="Group_535" data-name="Group 535" transform="translate(23107 -15705)">
      <circle id="Ellipse_39" data-name="Ellipse 39" cx="16" cy="16" r="16" fill="url(#linear-gradient)"/>
    </g>
    <g id="Group_538" data-name="Group 538" transform="translate(23114.205 -15697.796)">
      <rect id="Rectangle_298" data-name="Rectangle 298" width="19" height="19" transform="translate(-0.205 -0.204)" fill="none"/>
      <g id="Iconly_Bold_Call" data-name="Iconly/Bold/Call" transform="translate(2.179 2.179)">
        <g id="Call-2" data-name="Call" transform="translate(0 0)">
          <path id="Stroke-1" d="M7.062,7.8c3.119,3.118,3.827-.489,5.813,1.5,1.915,1.914,3.015,2.3.589,4.723-.3.244-2.234,3.182-9.019-3.6S.6,1.7.84,1.395C3.271-1.037,3.648.07,5.563,1.984,7.549,3.969,3.943,4.679,7.062,7.8Z" transform="translate(0 0)" fill="#fff" fill-rule="evenodd"/>
        </g>
      </g>
    </g>
  </g>
</svg>
