<svg id="drop_off" xmlns="http://www.w3.org/2000/svg" width="20" height="20" viewBox="0 0 20 20">
  <circle id="Ellipse_40" data-name="Ellipse 40" cx="10" cy="10" r="10" fill="#729f84"/>
  <g id="_332c2d488923161a75404aed5783e9c7" data-name="332c2d488923161a75404aed5783e9c7" transform="translate(2.795 2.795)">
    <path id="Path_437" data-name="Path 437" d="M0,0H14.41V14.41H0Z" fill="none"/>
    <path id="Path_438" data-name="Path 438" d="M7.3,5.009A2.291,2.291,0,1,0,9.59,7.3,2.29,2.29,0,0,0,7.3,5.009Zm5.12,1.718A5.151,5.151,0,0,0,7.872,2.18V1.573a.573.573,0,1,0-1.145,0V2.18A5.151,5.151,0,0,0,2.18,6.727H1.573a.573.573,0,1,0,0,1.145H2.18a5.151,5.151,0,0,0,4.547,4.547v.607a.573.573,0,1,0,1.145,0v-.607a5.151,5.151,0,0,0,4.547-4.547h.607a.573.573,0,1,0,0-1.145ZM7.3,11.308A4.009,4.009,0,1,1,11.308,7.3,4.006,4.006,0,0,1,7.3,11.308Z" transform="translate(-0.094 -0.094)" fill="#fff"/>
  </g>
</svg>
