<svg xmlns="http://www.w3.org/2000/svg" xmlns:xlink="http://www.w3.org/1999/xlink" width="32" height="32" viewBox="0 0 32 32">
  <defs>
    <linearGradient id="linear-gradient" x1="0.209" y1="0.941" x2="5.014" y2="-5.817" gradientUnits="objectBoundingBox">
      <stop offset="0" stop-color="#fe8048"/>
      <stop offset="1" stop-color="#001d2a" stop-opacity="0.322"/>
    </linearGradient>
  </defs>
  <g id="message" transform="translate(-23175 15705)">
    <g id="Group_536" data-name="Group 536" transform="translate(23175 -15705)">
      <circle id="Ellipse_39" data-name="Ellipse 39" cx="16" cy="16" r="16" fill="url(#linear-gradient)"/>
    </g>
    <g id="Group_537" data-name="Group 537" transform="translate(23182.111 -15697.889)">
      <rect id="Rectangle_297" data-name="Rectangle 297" width="18" height="18" transform="translate(-0.111 -0.111)" fill="none"/>
      <g id="Iconly_Bold_Chat" data-name="Iconly/Bold/Chat" transform="translate(1.27 1.269)">
        <g id="Chat" transform="translate(0 0)">
          <path id="Path_506" data-name="Path 506" d="M7.634,0A7.619,7.619,0,1,1,3.87,14.246a1.3,1.3,0,0,0-1.135-.275h0L1.2,14.429a.476.476,0,0,1-.625-.6h0l.51-1.709a.8.8,0,0,0-.053-.687A8.067,8.067,0,0,1,0,7.63,7.624,7.624,0,0,1,7.634,0Zm3.482,6.661a.977.977,0,1,0,.975.977A.973.973,0,0,0,11.116,6.661Zm-3.512,0a.971.971,0,0,0-.975.969.975.975,0,1,0,1.95.008A.973.973,0,0,0,7.6,6.661Zm-3.512,0a.973.973,0,0,0-.975.977.975.975,0,1,0,1.95,0A.973.973,0,0,0,4.091,6.661Z" fill="#fff"/>
        </g>
      </g>
    </g>
  </g>
</svg>
